<mxfile host="app.diagrams.net" agent="Mozilla/5.0 (Windows NT 10.0; Win64; x64) AppleWebKit/537.36 (KHTML, like Gecko) Chrome/138.0.0.0 Safari/537.36" version="28.0.4">
  <diagram name="第 1 页" id="nEBePmyGw-Gi65DsYcVD">
    <mxGraphModel dx="1155" dy="728" grid="1" gridSize="10" guides="1" tooltips="1" connect="1" arrows="1" fold="1" page="1" pageScale="1" pageWidth="827" pageHeight="1169" math="0" shadow="0">
      <root>
        <mxCell id="0" />
        <mxCell id="1" parent="0" />
        <mxCell id="zu6XJmqa_lum3ymBKWb_-1" value="CAN" style="rounded=0;whiteSpace=wrap;html=1;" vertex="1" parent="1">
          <mxGeometry x="110" y="320" width="120" height="60" as="geometry" />
        </mxCell>
        <mxCell id="zu6XJmqa_lum3ymBKWb_-2" value="23 原始数据&lt;div&gt;Ascii&lt;/div&gt;" style="rounded=0;whiteSpace=wrap;html=1;" vertex="1" parent="1">
          <mxGeometry x="380" y="280" width="120" height="60" as="geometry" />
        </mxCell>
        <mxCell id="zu6XJmqa_lum3ymBKWb_-3" value="blf 原始数据" style="rounded=0;whiteSpace=wrap;html=1;" vertex="1" parent="1">
          <mxGeometry x="380" y="370" width="120" height="60" as="geometry" />
        </mxCell>
        <mxCell id="zu6XJmqa_lum3ymBKWb_-5" value="" style="endArrow=classic;html=1;rounded=0;exitX=1;exitY=0.5;exitDx=0;exitDy=0;entryX=0;entryY=0.5;entryDx=0;entryDy=0;" edge="1" parent="1" source="zu6XJmqa_lum3ymBKWb_-1" target="zu6XJmqa_lum3ymBKWb_-3">
          <mxGeometry width="50" height="50" relative="1" as="geometry">
            <mxPoint x="390" y="420" as="sourcePoint" />
            <mxPoint x="440" y="370" as="targetPoint" />
          </mxGeometry>
        </mxCell>
        <mxCell id="zu6XJmqa_lum3ymBKWb_-6" value="" style="endArrow=classic;html=1;rounded=0;entryX=0;entryY=0.5;entryDx=0;entryDy=0;" edge="1" parent="1" target="zu6XJmqa_lum3ymBKWb_-2">
          <mxGeometry width="50" height="50" relative="1" as="geometry">
            <mxPoint x="230" y="350" as="sourcePoint" />
            <mxPoint x="440" y="370" as="targetPoint" />
          </mxGeometry>
        </mxCell>
        <mxCell id="zu6XJmqa_lum3ymBKWb_-8" value=".elf" style="shape=document;whiteSpace=wrap;html=1;boundedLbl=1;fontSize=20;" vertex="1" parent="1">
          <mxGeometry x="400" y="90" width="90" height="70" as="geometry" />
        </mxCell>
        <mxCell id="zu6XJmqa_lum3ymBKWb_-9" value=".map" style="shape=document;whiteSpace=wrap;html=1;boundedLbl=1;fontSize=20;" vertex="1" parent="1">
          <mxGeometry x="400" y="170" width="90" height="70" as="geometry" />
        </mxCell>
        <mxCell id="zu6XJmqa_lum3ymBKWb_-10" value="Trace32&lt;div&gt;&lt;br&gt;&lt;/div&gt;&lt;div&gt;&lt;br&gt;&lt;/div&gt;&lt;div&gt;&lt;br&gt;&lt;/div&gt;" style="rounded=0;whiteSpace=wrap;html=1;fontSize=20;" vertex="1" parent="1">
          <mxGeometry x="1340" y="190" width="250" height="130" as="geometry" />
        </mxCell>
        <mxCell id="zu6XJmqa_lum3ymBKWb_-11" value="Analyzer" style="rounded=0;whiteSpace=wrap;html=1;" vertex="1" parent="1">
          <mxGeometry x="810" y="110" width="160" height="170" as="geometry" />
        </mxCell>
        <mxCell id="zu6XJmqa_lum3ymBKWb_-12" value="" style="endArrow=classic;html=1;rounded=0;entryX=0;entryY=0.5;entryDx=0;entryDy=0;exitX=1;exitY=0.5;exitDx=0;exitDy=0;" edge="1" parent="1" source="zu6XJmqa_lum3ymBKWb_-8" target="zu6XJmqa_lum3ymBKWb_-11">
          <mxGeometry width="50" height="50" relative="1" as="geometry">
            <mxPoint x="530" y="420" as="sourcePoint" />
            <mxPoint x="580" y="370" as="targetPoint" />
          </mxGeometry>
        </mxCell>
        <mxCell id="zu6XJmqa_lum3ymBKWb_-15" value="Path" style="edgeLabel;html=1;align=center;verticalAlign=middle;resizable=0;points=[];fontSize=20;" vertex="1" connectable="0" parent="zu6XJmqa_lum3ymBKWb_-12">
          <mxGeometry x="0.1888" y="-1" relative="1" as="geometry">
            <mxPoint as="offset" />
          </mxGeometry>
        </mxCell>
        <mxCell id="zu6XJmqa_lum3ymBKWb_-16" value="" style="endArrow=classic;html=1;rounded=0;exitX=0.959;exitY=0.391;exitDx=0;exitDy=0;exitPerimeter=0;entryX=0;entryY=0.5;entryDx=0;entryDy=0;" edge="1" parent="1" source="zu6XJmqa_lum3ymBKWb_-9" target="zu6XJmqa_lum3ymBKWb_-11">
          <mxGeometry width="50" height="50" relative="1" as="geometry">
            <mxPoint x="720" y="240" as="sourcePoint" />
            <mxPoint x="810" y="280" as="targetPoint" />
          </mxGeometry>
        </mxCell>
        <mxCell id="zu6XJmqa_lum3ymBKWb_-17" value="Path" style="edgeLabel;html=1;align=center;verticalAlign=middle;resizable=0;points=[];fontSize=20;" vertex="1" connectable="0" parent="zu6XJmqa_lum3ymBKWb_-16">
          <mxGeometry x="0.1888" y="-1" relative="1" as="geometry">
            <mxPoint x="-78" y="-17" as="offset" />
          </mxGeometry>
        </mxCell>
        <mxCell id="zu6XJmqa_lum3ymBKWb_-18" value="data.load_xxx.cmm&lt;div&gt;&lt;div style=&quot;font-size: 20px;&quot;&gt;data.load *.txt &amp;lt;address&amp;gt;&lt;/div&gt;&lt;div style=&quot;font-size: 20px;&quot;&gt;data.load *.elf&lt;/div&gt;&lt;/div&gt;" style="rounded=0;whiteSpace=wrap;html=1;" vertex="1" parent="1">
          <mxGeometry x="1010" y="200" width="270" height="60" as="geometry" />
        </mxCell>
      </root>
    </mxGraphModel>
  </diagram>
</mxfile>
